<svg width="180" height="37" viewBox="0 0 180 37" fill="none" xmlns="http://www.w3.org/2000/svg">
<path d="m48.9 32.2-.9-1.4c-.5-.7-1-1.4-1.6-2.1-.6-.7-1.2-1.4-1.9-2-.7-.6-1.4-1.1-2.1-1.5s-1.5-.6-2.3-.6c-.8 0-1.5.2-2.1.7s-.9 1.1-.9 2c0 .5.1 1 .4 1.4s.6.8 1 1.1.9.6 1.4.8l1.5.6c.6.2 1.2.5 1.7.8s1 .7 1.3 1.2.5 1.1.5 1.8-.2 1.4-.5 2-.8 1-1.4 1.3-1.3.5-2.1.5c-1.2 0-2.2-.4-3.1-1.1s-1.5-1.8-1.8-3.2h-2.4c.1 1 .4 1.9.8 2.7s1 1.5 1.7 2 1.5.9 2.4 1.1 1.8.3 2.8.3c1.6 0 2.9-.5 4-1.4s1.6-2.3 1.6-4.1c0-.9-.2-1.7-.5-2.3s-.8-1.2-1.4-1.6-1.2-.8-2-.1.1-1.6-.2s-.9-.2-1.3-.2-.8.1-1.1.3-.6.5-.8.9-.3.8-.3 1.3c0 .3 0 .6.1.9s.3.5.5.7.5.3.8.4.6.1 1 .1c.5 0 1-.1 1.4-.3s.8-.5 1.1-.9.5-.8.7-1.3.3-1 .3-1.6c0-.8-.1-1.5-.4-2.1s-.7-1.1-1.2-1.5-1.1-.7-1.8-.9-1.4-.3-2.2-.3c-1 0-1.9.2-2.7.5s-1.5.8-2.1 1.4-.1 1.3-.1 2.1c0 .6.1 1.1.3 1.6s.5 1 .9 1.4.8.7 1.3.9 1 .3 1.6.3c.7 0 1.3-.1 1.8-.4s1-.6 1.3-1.1h.1v1.4h2.1V21h-2.2v11.2z" fill="currentColor"/>
</svg>